<?xml version="1.0" standalone="no"?>
<!DOCTYPE svg PUBLIC "-//W3C//DTD SVG 20010904//EN"
 "http://www.w3.org/TR/2001/REC-SVG-20010904/DTD/svg10.dtd">
<svg version="1.0" xmlns="http://www.w3.org/2000/svg"
 width="800.000000pt" height="800.000000pt" viewBox="0 0 800.000000 800.000000"
 preserveAspectRatio="xMidYMid meet">

<g transform="translate(0.000000,800.000000) scale(0.100000,-0.100000)"
fill="#000000" stroke="none">
<path d="M3670 7994 c-19 -2 -78 -9 -130 -14 -619 -69 -1240 -296 -1760 -643
-228 -153 -384 -280 -588 -481 -344 -338 -589 -678 -797 -1109 -195 -403 -307
-776 -371 -1237 -21 -154 -31 -677 -15 -849 46 -496 170 -944 385 -1386 203
-418 422 -729 745 -1059 340 -346 679 -590 1116 -802 555 -270 1111 -397 1735
-397 324 0 537 23 845 89 509 108 1028 336 1455 638 246 174 522 424 719 651
1175 1357 1301 3336 308 4825 -245 367 -570 713 -912 971 -504 381 -1094 641
-1695 748 -263 47 -327 53 -670 56 -184 2 -351 1 -370 -1z m990 -1002 c271
-101 335 -112 700 -122 306 -9 377 -19 476 -66 30 -14 54 -28 52 -30 -2 -1
-64 -12 -137 -23 -247 -38 -293 -53 -449 -144 -78 -45 -179 -104 -226 -131
-156 -89 -258 -203 -340 -377 -63 -134 -80 -204 -80 -329 1 -256 116 -616 324
-1017 73 -140 181 -334 200 -358 17 -21 102 -188 139 -272 49 -112 123 -325
156 -450 35 -132 72 -314 71 -351 -1 -16 2 -28 6 -26 4 3 7 -4 7 -13 0 -10 2
-42 5 -71 4 -38 2 -51 -6 -46 -7 5 -9 2 -6 -7 3 -8 9 -25 13 -39 7 -24 7 -24
-9 -5 -8 11 -16 16 -16 10 0 -16 -30 45 -31 64 0 13 -2 12 -8 -3 -5 -14 -10
-16 -15 -8 -12 19 -33 -8 -30 -37 2 -17 1 -19 -2 -7 -5 15 -8 16 -15 5 -6 -11
-9 -8 -9 9 0 13 -6 22 -15 22 -10 0 -15 -9 -14 -27 0 -25 1 -26 10 -8 7 17 8
17 6 2 -3 -28 -22 -25 -25 5 -2 19 -8 25 -18 21 -8 -3 -14 0 -14 7 0 6 -5 8
-10 5 -8 -5 -7 -11 1 -21 9 -11 7 -14 -10 -14 -11 0 -21 1 -21 3 0 1 4 17 10
35 7 28 6 33 -5 28 -7 -2 -16 0 -18 7 -2 7 -3 4 -1 -7 4 -28 -17 -66 -38 -66
-10 0 -18 5 -18 11 0 6 7 9 15 5 9 -3 15 0 15 10 0 12 -6 15 -22 10 -13 -3
-28 -6 -35 -6 -7 0 -10 -6 -7 -13 2 -7 -1 -19 -8 -27 -7 -9 -12 -13 -10 -11 1
3 -8 15 -20 29 -13 13 -22 27 -20 30 2 4 -1 8 -7 10 -6 2 -11 -3 -11 -11 0 -9
-6 -17 -12 -20 -9 -3 -7 -10 7 -21 25 -19 7 -21 -19 -1 -11 8 -28 15 -38 15
-10 0 -18 5 -18 10 0 6 -19 9 -42 9 -24 -1 -33 -4 -20 -6 12 -2 22 -10 22 -16
0 -8 3 -7 9 2 6 9 11 10 15 2 4 -6 0 -14 -9 -18 -10 -3 -21 0 -26 8 -7 11 -9
11 -9 -3 0 -9 6 -19 13 -21 9 -4 9 -6 -1 -6 -8 -1 -16 8 -19 19 -3 11 -11 20
-19 20 -9 0 -11 -6 -7 -17 7 -17 6 -17 -11 0 -20 20 -32 22 -41 7 -5 -8 -11
-7 -21 1 -11 9 -14 9 -14 -1 0 -10 -3 -10 -14 -1 -8 7 -25 9 -40 5 -20 -5 -26
-2 -26 9 0 9 -5 19 -10 22 -7 4 -9 -3 -5 -22 4 -23 4 -24 -4 -8 -7 14 -10 15
-10 5 -1 -13 -2 -13 -11 0 -8 12 -10 12 -10 1 0 -8 -2 -12 -5 -9 -3 3 -1 16 4
30 7 19 6 25 -5 25 -8 0 -13 -6 -10 -14 3 -7 3 -20 -1 -29 -5 -13 -7 -13 -14
-2 -7 10 -9 8 -10 -7 0 -14 -6 -8 -20 20 l-19 40 4 -40 5 -40 -19 24 c-13 15
-20 18 -20 9 0 -8 -7 -23 -16 -34 -15 -19 -15 -18 -11 3 3 12 -1 27 -8 33 -9
8 -14 4 -17 -15 -3 -14 -1 -25 4 -25 5 0 6 -5 3 -11 -11 -16 -20 2 -24 44 -1
5 -6 5 -11 2 -6 -4 -17 -1 -25 5 -17 14 -36 5 -29 -13 2 -7 -4 -21 -15 -31
-19 -17 -19 -17 -15 1 4 14 -1 18 -21 19 -18 2 -25 -2 -21 -12 3 -8 0 -11 -10
-7 -7 3 -14 9 -14 14 0 5 -6 9 -14 9 -7 0 -19 7 -26 15 -7 8 -23 15 -35 15
-24 0 -49 22 -38 34 4 4 0 4 -10 1 -15 -6 -15 -9 -2 -22 20 -20 38 -54 32 -60
-3 -2 -13 7 -22 21 -10 14 -22 26 -27 26 -7 0 -7 -4 0 -13 7 -8 7 -17 -2 -29
-14 -19 -28 -14 -20 7 3 7 1 16 -5 20 -6 3 -11 -1 -11 -9 0 -19 -4 -19 -47 -4
-28 10 -32 15 -26 36 4 17 2 23 -6 18 -6 -4 -11 -24 -12 -44 l-1 -37 -9 39
c-13 56 -23 60 -15 6 4 -31 3 -40 -4 -30 -5 8 -10 29 -11 45 l-2 30 -4 -27
c-2 -16 -8 -28 -13 -28 -5 0 -7 6 -4 13 3 8 -2 14 -11 14 -9 0 -14 -5 -12 -11
17 -46 18 -58 6 -53 -8 2 -13 10 -11 17 5 20 -19 70 -30 64 -6 -4 -5 -10 3
-14 9 -6 7 -16 -10 -42 -20 -30 -21 -31 -16 -7 5 21 2 27 -14 32 -12 3 -21 1
-21 -4 0 -5 8 -9 17 -9 16 0 16 -1 0 -17 -14 -14 -19 -15 -26 -5 -4 7 -12 12
-17 11 -21 -4 -34 2 -34 16 0 9 -9 15 -21 15 -18 0 -19 -2 -9 -15 7 -9 10 -18
7 -22 -4 -3 1 -12 11 -19 9 -7 12 -14 6 -14 -16 0 -55 45 -52 60 2 7 -3 15 -9
17 -16 6 -17 -19 -1 -35 9 -9 6 -12 -14 -12 -18 0 -25 5 -24 16 0 9 -5 19 -13
22 -10 3 -12 0 -8 -12 9 -23 -22 -21 -53 4 -14 11 -31 20 -37 20 -7 0 -13 10
-14 23 0 12 -3 16 -6 10 -2 -7 -9 -13 -15 -13 -6 0 -8 6 -5 14 4 10 0 12 -14
9 -10 -3 -19 0 -19 6 0 6 -3 10 -7 9 -5 -1 -28 11 -53 26 -25 16 -144 92 -265
169 -121 76 -309 196 -418 266 -109 69 -246 156 -305 193 -59 36 -116 73 -126
81 -19 13 -18 17 24 143 193 580 355 941 673 1499 264 463 754 1206 857 1299
23 21 75 54 114 72 104 50 181 64 311 60 103 -3 118 -7 245 -54z m847 -3864
c-3 -7 -5 -2 -5 12 0 14 2 19 5 13 2 -7 2 -19 0 -25z m-947 -7 c0 -3 -11 -6
-24 -6 -18 0 -22 3 -14 12 9 11 38 7 38 -6z m-370 -1 c0 -5 -2 -10 -4 -10 -3
0 -8 5 -11 10 -3 6 -1 10 4 10 6 0 11 -4 11 -10z m905 0 c3 -5 0 -7 -8 -4 -8
3 -18 -5 -24 -17 -6 -16 -12 -19 -17 -11 -4 7 -2 12 3 12 6 0 11 7 11 15 0 17
25 20 35 5z m-758 -22 c-3 -8 -6 -5 -6 6 -1 11 2 17 5 13 3 -3 4 -12 1 -19z
m327 7 c-7 -16 -24 -21 -24 -6 0 8 7 13 27 20 1 1 0 -6 -3 -14z m213 9 c-3 -3
-12 -4 -19 -1 -8 3 -5 6 6 6 11 1 17 -2 13 -5z m-151 -16 c4 -7 4 -10 -1 -6
-4 4 -14 3 -22 -3 -13 -11 -19 2 -6 14 10 11 21 8 29 -5z m801 -20 c-3 -7 -5
-2 -5 12 0 14 2 19 5 13 2 -7 2 -19 0 -25z m-1227 -13 c0 -5 -5 -3 -10 5 -5 8
-10 20 -10 25 0 6 5 3 10 -5 5 -8 10 -19 10 -25z m150 14 c0 -5 -4 -9 -10 -9
-5 0 -10 7 -10 16 0 8 5 12 10 9 6 -3 10 -10 10 -16z m60 11 c0 -5 -5 -10 -11
-10 -5 0 -7 5 -4 10 3 6 8 10 11 10 2 0 4 -4 4 -10z m330 6 c0 -11 -19 -15
-25 -6 -3 5 1 10 9 10 9 0 16 -2 16 -4z m180 -6 c0 -5 -5 -10 -11 -10 -5 0 -7
5 -4 10 3 6 8 10 11 10 2 0 4 -4 4 -10z m312 -12 c-7 -7 -12 -8 -12 -2 0 14
12 26 19 19 2 -3 -1 -11 -7 -17z m-1427 2 c3 -5 1 -10 -4 -10 -6 0 -11 5 -11
10 0 6 2 10 4 10 3 0 8 -4 11 -10z m295 -10 c0 -5 -2 -10 -4 -10 -3 0 -8 5
-11 10 -3 6 -1 10 4 10 6 0 11 -4 11 -10z m-150 -24 c0 -3 -4 -8 -10 -11 -5
-3 -10 -1 -10 4 0 6 5 11 10 11 6 0 10 -2 10 -4z"/>
<path d="M5171 3284 c0 -11 3 -14 6 -6 3 7 2 16 -1 19 -3 4 -6 -2 -5 -13z"/>
<path d="M5348 3283 c7 -3 16 -2 19 1 4 3 -2 6 -13 5 -11 0 -14 -3 -6 -6z"/>
<path d="M3778 3253 c6 -2 18 -2 25 0 6 3 1 5 -13 5 -14 0 -19 -2 -12 -5z"/>
<path d="M3941 3245 c0 -11 4 -27 9 -35 9 -13 10 -13 9 0 0 8 -4 24 -9 35 l-9
20 0 -20z"/>
<path d="M4021 3246 c-8 -10 -9 -16 -1 -21 5 -3 10 -5 11 -3 4 18 7 38 4 38
-1 0 -8 -6 -14 -14z"/>
<path d="M3990 3216 c0 -9 -4 -14 -10 -11 -5 3 -10 1 -10 -4 0 -6 5 -11 10
-11 13 0 25 28 16 37 -3 4 -6 -1 -6 -11z"/>
<path d="M4985 3220 c-16 -4 -22 -8 -13 -9 9 0 22 -9 27 -18 9 -16 13 -10 10
14 0 4 8 10 18 14 24 10 -2 9 -42 -1z"/>
<path d="M5124 3217 c-9 -10 -2 -13 30 -13 23 -1 33 1 24 3 -10 3 -18 9 -18
14 0 13 -23 10 -36 -4z"/>
<path d="M5251 3222 c-1 -7 -5 -10 -11 -7 -5 3 -10 -1 -10 -9 0 -21 46 -21 54
0 10 25 6 31 -6 9 -11 -19 -11 -19 -19 0 -4 11 -8 14 -8 7z"/>
<path d="M5456 3214 c-4 -9 -4 -19 -1 -22 2 -3 7 3 11 12 4 9 4 19 1 22 -2 3
-7 -3 -11 -12z"/>
<path d="M3726 3204 c-8 -22 -7 -34 3 -34 5 0 9 11 9 25 0 29 -3 31 -12 9z"/>
<path d="M4045 3209 c-9 -14 -2 -20 14 -10 8 6 9 11 3 15 -6 3 -14 1 -17 -5z"/>
<path d="M4179 3204 c18 -13 25 -14 34 -4 9 10 8 12 -5 7 -10 -3 -20 -2 -23 3
-4 6 -11 10 -18 10 -6 0 -1 -7 12 -16z"/>
<path d="M4392 3184 c-2 -19 2 -34 8 -34 6 0 8 10 4 26 -6 24 -5 26 16 19 14
-4 20 -3 16 3 -3 5 -14 12 -24 14 -15 4 -19 -1 -20 -28z"/>
<path d="M4617 3206 c-3 -8 1 -17 10 -20 23 -9 28 1 10 18 -13 13 -16 13 -20
2z"/>
<path d="M4793 3204 c0 -16 13 -19 21 -5 3 5 0 11 -7 14 -8 3 -14 -1 -14 -9z"/>
<path d="M3910 3206 c0 -2 6 -9 13 -15 10 -8 14 -7 14 4 0 8 -6 15 -14 15 -7
0 -13 -2 -13 -4z"/>
<path d="M4560 3200 c-8 -5 -12 -12 -9 -15 4 -3 12 1 19 10 14 17 11 19 -10 5z"/>
<path d="M5200 3200 c0 -5 5 -10 11 -10 5 0 7 5 4 10 -3 6 -8 10 -11 10 -2 0
-4 -4 -4 -10z"/>
<path d="M3756 3191 c-3 -4 6 -6 19 -3 14 2 25 6 25 8 0 8 -39 4 -44 -5z"/>
<path d="M4226 3191 c-4 -5 -2 -12 3 -15 5 -4 12 -2 15 3 4 5 2 12 -3 15 -5 4
-12 2 -15 -3z"/>
<path d="M4975 3190 c-3 -5 -1 -10 4 -10 6 0 11 5 11 10 0 6 -2 10 -4 10 -3 0
-8 -4 -11 -10z"/>
<path d="M4820 3169 c0 -5 5 -7 10 -4 6 3 10 8 10 11 0 2 -4 4 -10 4 -5 0 -10
-5 -10 -11z"/>
<path d="M4890 3170 c0 -5 7 -10 15 -10 8 0 15 5 15 10 0 6 -7 10 -15 10 -8 0
-15 -4 -15 -10z"/>
<path d="M4950 3170 c0 -5 5 -10 11 -10 5 0 7 5 4 10 -3 6 -8 10 -11 10 -2 0
-4 -4 -4 -10z"/>
<path d="M4190 3160 c0 -5 7 -10 16 -10 8 0 12 5 9 10 -3 6 -10 10 -16 10 -5
0 -9 -4 -9 -10z"/>
<path d="M4475 3160 c-3 -5 -1 -10 4 -10 6 0 11 5 11 10 0 6 -2 10 -4 10 -3 0
-8 -4 -11 -10z"/>
<path d="M5185 3160 c-3 -5 -1 -10 4 -10 6 0 11 5 11 10 0 6 -2 10 -4 10 -3 0
-8 -4 -11 -10z"/>
</g>
</svg>
